<svg xmlns="http://www.w3.org/2000/svg" viewBox="0 0 2426 1453" width="2426" height="1453" style="background-color: #FFFFFF; font-family: -apple-system, BlinkMacSystemFont, 'Segoe UI', Roboto, Helvetica, Arial, sans-serif;">

    <defs>
        <filter id="stickyShadow" x="-10%" y="-10%" width="125%" height="130%">
            <feDropShadow dx="0" dy="2" stdDeviation="2" flood-color="#000000" flood-opacity="0.10"/>
        </filter>
    </defs>
    
<rect width="2426" height="1453" fill="#FFFFFF"/>

    <g transform="translate(40, 64)">
        <text font-size="22" font-weight="800" fill="#1A202C" letter-spacing="-0.3">Sistema de Optimización de Cadena de Suministro tipo Zara</text>
    </g>
    
<g transform="translate(40, 135)">
<text x="0" y="0" font-size="18" font-weight="800" fill="#1E293B">EPICAS</text>
</g>
<line x1="40" y1="255" x2="2376" y2="255" stroke="#E2E8F0" stroke-width="1.5" stroke-dasharray="4,4"/>
<g transform="translate(40, 305)">
<text x="0" y="0" font-size="18" font-weight="800" fill="#1E293B">Feature</text>
</g>
<line x1="40" y1="547" x2="2376" y2="547" stroke="#E2E8F0" stroke-width="1.5" stroke-dasharray="4,4"/>
<g transform="translate(40, 597)">
<text x="0" y="0" font-size="18" font-weight="800" fill="#1E293B">User stories</text>
<text x="0" y="24" font-size="18" font-weight="800" fill="#1E293B">Release 1</text>
</g>
<line x1="40" y1="839" x2="2376" y2="839" stroke="#E2E8F0" stroke-width="1.5" stroke-dasharray="4,4"/>
<g transform="translate(40, 889)">
<text x="0" y="0" font-size="18" font-weight="800" fill="#1E293B">Release 2</text>
</g>
<line x1="40" y1="1131" x2="2376" y2="1131" stroke="#E2E8F0" stroke-width="1.5" stroke-dasharray="4,4"/>
<g transform="translate(40, 1181)">
<text x="0" y="0" font-size="18" font-weight="800" fill="#1E293B">Release 3</text>
</g>

        <g filter="url(#stickyShadow)">
            <rect x="220" y="105" width="148" height="118" rx="4" fill="#70A5F9" stroke="#528EE8" stroke-width="1"/>
        
<text x="294.0" y="159.5" font-size="13" font-weight="700" fill="#1A202C" text-anchor="middle">Usuarios</text>
<text x="294.0" y="176.5" font-size="13" font-weight="700" fill="#1A202C" text-anchor="middle">y accesos</text>
</g>

        <path d="M 294.0 223 C 294.0 241, 294.0 257, 294.0 275" fill="none" stroke="#C4CDD5" stroke-width="1.5"/>
        

        <g filter="url(#stickyShadow)">
            <rect x="388" y="105" width="148" height="118" rx="4" fill="#70A5F9" stroke="#528EE8" stroke-width="1"/>
        
<text x="462.0" y="159.5" font-size="13" font-weight="700" fill="#1A202C" text-anchor="middle">Catálogo</text>
<text x="462.0" y="176.5" font-size="13" font-weight="700" fill="#1A202C" text-anchor="middle">de productos</text>
</g>

        <path d="M 462.0 223 C 462.0 241, 462.0 257, 462.0 275" fill="none" stroke="#C4CDD5" stroke-width="1.5"/>
        

        <g filter="url(#stickyShadow)">
            <rect x="556" y="105" width="148" height="118" rx="4" fill="#70A5F9" stroke="#528EE8" stroke-width="1"/>
        
<text x="630.0" y="159.5" font-size="13" font-weight="700" fill="#1A202C" text-anchor="middle">Gestión</text>
<text x="630.0" y="176.5" font-size="13" font-weight="700" fill="#1A202C" text-anchor="middle">de tiendas</text>
</g>

        <path d="M 630.0 223 C 630.0 241, 630.0 257, 630.0 275" fill="none" stroke="#C4CDD5" stroke-width="1.5"/>
        

        <g filter="url(#stickyShadow)">
            <rect x="724" y="105" width="148" height="118" rx="4" fill="#70A5F9" stroke="#528EE8" stroke-width="1"/>
        
<text x="798.0" y="159.5" font-size="13" font-weight="700" fill="#1A202C" text-anchor="middle">Gestión</text>
<text x="798.0" y="176.5" font-size="13" font-weight="700" fill="#1A202C" text-anchor="middle">de CDs</text>
</g>

        <path d="M 798.0 223 C 798.0 241, 798.0 257, 798.0 275" fill="none" stroke="#C4CDD5" stroke-width="1.5"/>
        

        <g filter="url(#stickyShadow)">
            <rect x="892" y="105" width="148" height="118" rx="4" fill="#70A5F9" stroke="#528EE8" stroke-width="1"/>
        
<text x="966.0" y="168.0" font-size="13" font-weight="700" fill="#1A202C" text-anchor="middle">Ventas</text>
</g>

        <path d="M 966.0 223 C 966.0 241, 966.0 257, 966.0 275" fill="none" stroke="#C4CDD5" stroke-width="1.5"/>
        

        <g filter="url(#stickyShadow)">
            <rect x="1060" y="105" width="148" height="118" rx="4" fill="#70A5F9" stroke="#528EE8" stroke-width="1"/>
        
<text x="1134.0" y="159.5" font-size="13" font-weight="700" fill="#1A202C" text-anchor="middle">Inventario</text>
<text x="1134.0" y="176.5" font-size="13" font-weight="700" fill="#1A202C" text-anchor="middle">en tienda</text>
</g>

        <path d="M 1134.0 223 C 1134.0 241, 1134.0 257, 1134.0 275" fill="none" stroke="#C4CDD5" stroke-width="1.5"/>
        

        <g filter="url(#stickyShadow)">
            <rect x="1228" y="105" width="148" height="118" rx="4" fill="#70A5F9" stroke="#528EE8" stroke-width="1"/>
        
<text x="1302.0" y="159.5" font-size="13" font-weight="700" fill="#1A202C" text-anchor="middle">Inventario</text>
<text x="1302.0" y="176.5" font-size="13" font-weight="700" fill="#1A202C" text-anchor="middle">en CD</text>
</g>

        <path d="M 1302.0 223 C 1302.0 241, 1302.0 257, 1302.0 275" fill="none" stroke="#C4CDD5" stroke-width="1.5"/>
        

        <g filter="url(#stickyShadow)">
            <rect x="1396" y="105" width="148" height="118" rx="4" fill="#70A5F9" stroke="#528EE8" stroke-width="1"/>
        
<text x="1470.0" y="159.5" font-size="13" font-weight="700" fill="#1A202C" text-anchor="middle">Análisis</text>
<text x="1470.0" y="176.5" font-size="13" font-weight="700" fill="#1A202C" text-anchor="middle">de demanda</text>
</g>

        <path d="M 1470.0 223 C 1470.0 241, 1470.0 257, 1470.0 275" fill="none" stroke="#C4CDD5" stroke-width="1.5"/>
        

        <g filter="url(#stickyShadow)">
            <rect x="1644.0" y="105" width="148" height="118" rx="4" fill="#70A5F9" stroke="#528EE8" stroke-width="1"/>
        
<text x="1718.0" y="159.5" font-size="13" font-weight="700" fill="#1A202C" text-anchor="middle">Recomendaciones</text>
<text x="1718.0" y="176.5" font-size="13" font-weight="700" fill="#1A202C" text-anchor="middle">y órdenes</text>
</g>

        <path d="M 1718.0 223 C 1718.0 241, 1638.0 257, 1638.0 275" fill="none" stroke="#C4CDD5" stroke-width="1.5"/>
        

        <g filter="url(#stickyShadow)">
            <rect x="1892" y="105" width="148" height="118" rx="4" fill="#70A5F9" stroke="#528EE8" stroke-width="1"/>
        
<text x="1966.0" y="159.5" font-size="13" font-weight="700" fill="#1A202C" text-anchor="middle">Inventario</text>
<text x="1966.0" y="176.5" font-size="13" font-weight="700" fill="#1A202C" text-anchor="middle">consolidado</text>
</g>

        <path d="M 1966.0 223 C 1966.0 241, 1966.0 257, 1966.0 275" fill="none" stroke="#C4CDD5" stroke-width="1.5"/>
        

        <g filter="url(#stickyShadow)">
            <rect x="2060" y="105" width="148" height="118" rx="4" fill="#70A5F9" stroke="#528EE8" stroke-width="1"/>
        
<text x="2134.0" y="159.5" font-size="13" font-weight="700" fill="#1A202C" text-anchor="middle">Reportes</text>
<text x="2134.0" y="176.5" font-size="13" font-weight="700" fill="#1A202C" text-anchor="middle">analíticos</text>
</g>

        <path d="M 2134.0 223 C 2134.0 241, 2134.0 257, 2134.0 275" fill="none" stroke="#C4CDD5" stroke-width="1.5"/>
        

        <g filter="url(#stickyShadow)">
            <rect x="2228" y="105" width="148" height="118" rx="4" fill="#70A5F9" stroke="#528EE8" stroke-width="1"/>
        
<text x="2302.0" y="159.5" font-size="13" font-weight="700" fill="#1A202C" text-anchor="middle">Autenticación</text>
<text x="2302.0" y="176.5" font-size="13" font-weight="700" fill="#1A202C" text-anchor="middle">y seguridad</text>
</g>

        <path d="M 2302.0 223 C 2302.0 241, 2302.0 257, 2302.0 275" fill="none" stroke="#C4CDD5" stroke-width="1.5"/>
        

        <g filter="url(#stickyShadow)">
            <rect x="220" y="275" width="148" height="118" rx="4" fill="#8ED5FA" stroke="#6AC1F0" stroke-width="1"/>
        
<text x="232" y="297" font-size="12" font-weight="700" fill="#1A202C">F1</text>
<text x="232" y="313" font-size="12" font-weight="700" fill="#1A202C">Gestión de</text>
<text x="232" y="329" font-size="12" font-weight="700" fill="#1A202C">cuentas de usuario</text>
</g>

        <g filter="url(#stickyShadow)">
            <rect x="220" y="403" width="148" height="118" rx="4" fill="#8ED5FA" stroke="#6AC1F0" stroke-width="1"/>
        
<text x="232" y="425" font-size="12" font-weight="700" fill="#1A202C">F2</text>
<text x="232" y="441" font-size="12" font-weight="700" fill="#1A202C">Gestión de ubicaciones</text>
<text x="232" y="457" font-size="12" font-weight="700" fill="#1A202C">asignadas</text>
</g>

        <g filter="url(#stickyShadow)">
            <rect x="388" y="275" width="148" height="118" rx="4" fill="#8ED5FA" stroke="#6AC1F0" stroke-width="1"/>
        
<text x="400" y="297" font-size="12" font-weight="700" fill="#1A202C">F3</text>
<text x="400" y="313" font-size="12" font-weight="700" fill="#1A202C">Gestión de</text>
<text x="400" y="329" font-size="12" font-weight="700" fill="#1A202C">productos</text>
</g>

        <g filter="url(#stickyShadow)">
            <rect x="556" y="275" width="148" height="118" rx="4" fill="#8ED5FA" stroke="#6AC1F0" stroke-width="1"/>
        
<text x="568" y="297" font-size="12" font-weight="700" fill="#1A202C">F4</text>
<text x="568" y="313" font-size="12" font-weight="700" fill="#1A202C">Gestión de</text>
<text x="568" y="329" font-size="12" font-weight="700" fill="#1A202C">tiendas</text>
</g>

        <g filter="url(#stickyShadow)">
            <rect x="724" y="275" width="148" height="118" rx="4" fill="#8ED5FA" stroke="#6AC1F0" stroke-width="1"/>
        
<text x="736" y="297" font-size="12" font-weight="700" fill="#1A202C">F5</text>
<text x="736" y="313" font-size="12" font-weight="700" fill="#1A202C">Gestión de centros</text>
<text x="736" y="329" font-size="12" font-weight="700" fill="#1A202C">de distribución</text>
</g>

        <g filter="url(#stickyShadow)">
            <rect x="892" y="275" width="148" height="118" rx="4" fill="#8ED5FA" stroke="#6AC1F0" stroke-width="1"/>
        
<text x="904" y="297" font-size="12" font-weight="700" fill="#1A202C">F6</text>
<text x="904" y="313" font-size="12" font-weight="700" fill="#1A202C">Registro de</text>
<text x="904" y="329" font-size="12" font-weight="700" fill="#1A202C">ventas</text>
</g>

        <g filter="url(#stickyShadow)">
            <rect x="1060" y="275" width="148" height="118" rx="4" fill="#8ED5FA" stroke="#6AC1F0" stroke-width="1"/>
        
<text x="1072" y="297" font-size="12" font-weight="700" fill="#1A202C">F7</text>
<text x="1072" y="313" font-size="12" font-weight="700" fill="#1A202C">Consulta y ajuste de</text>
<text x="1072" y="329" font-size="12" font-weight="700" fill="#1A202C">inventario en tienda</text>
</g>

        <g filter="url(#stickyShadow)">
            <rect x="1060" y="403" width="148" height="118" rx="4" fill="#8ED5FA" stroke="#6AC1F0" stroke-width="1"/>
        
<text x="1072" y="425" font-size="12" font-weight="700" fill="#1A202C">F8</text>
<text x="1072" y="441" font-size="12" font-weight="700" fill="#1A202C">Recepción y reposición</text>
<text x="1072" y="457" font-size="12" font-weight="700" fill="#1A202C">desde tienda</text>
</g>

        <g filter="url(#stickyShadow)">
            <rect x="1228" y="275" width="148" height="118" rx="4" fill="#8ED5FA" stroke="#6AC1F0" stroke-width="1"/>
        
<text x="1240" y="297" font-size="12" font-weight="700" fill="#1A202C">F9</text>
<text x="1240" y="313" font-size="12" font-weight="700" fill="#1A202C">Consulta y ajuste de</text>
<text x="1240" y="329" font-size="12" font-weight="700" fill="#1A202C">inventario en CD</text>
</g>

        <g filter="url(#stickyShadow)">
            <rect x="1228" y="403" width="148" height="118" rx="4" fill="#8ED5FA" stroke="#6AC1F0" stroke-width="1"/>
        
<text x="1240" y="425" font-size="12" font-weight="700" fill="#1A202C">F10</text>
<text x="1240" y="441" font-size="12" font-weight="700" fill="#1A202C">Ingreso de</text>
<text x="1240" y="457" font-size="12" font-weight="700" fill="#1A202C">mercancía al CD</text>
</g>

        <g filter="url(#stickyShadow)">
            <rect x="1396" y="275" width="148" height="118" rx="4" fill="#8ED5FA" stroke="#6AC1F0" stroke-width="1"/>
        
<text x="1408" y="297" font-size="12" font-weight="700" fill="#1A202C">F11</text>
<text x="1408" y="313" font-size="12" font-weight="700" fill="#1A202C">Patrones de</text>
<text x="1408" y="329" font-size="12" font-weight="700" fill="#1A202C">demanda</text>
</g>

        <g filter="url(#stickyShadow)">
            <rect x="1564" y="275" width="148" height="118" rx="4" fill="#8ED5FA" stroke="#6AC1F0" stroke-width="1"/>
        
<text x="1576" y="297" font-size="12" font-weight="700" fill="#1A202C">F12</text>
<text x="1576" y="313" font-size="12" font-weight="700" fill="#1A202C">Recomendaciones</text>
<text x="1576" y="329" font-size="12" font-weight="700" fill="#1A202C">de reposición</text>
</g>

        <g filter="url(#stickyShadow)">
            <rect x="1564" y="403" width="148" height="118" rx="4" fill="#8ED5FA" stroke="#6AC1F0" stroke-width="1"/>
        
<text x="1576" y="425" font-size="12" font-weight="700" fill="#1A202C">F13</text>
<text x="1576" y="441" font-size="12" font-weight="700" fill="#1A202C">Despacho y</text>
<text x="1576" y="457" font-size="12" font-weight="700" fill="#1A202C">seguimiento de órdenes</text>
</g>

        <g filter="url(#stickyShadow)">
            <rect x="1892" y="275" width="148" height="118" rx="4" fill="#8ED5FA" stroke="#6AC1F0" stroke-width="1"/>
        
<text x="1904" y="297" font-size="12" font-weight="700" fill="#1A202C">F14</text>
<text x="1904" y="313" font-size="12" font-weight="700" fill="#1A202C">Vista consolidada</text>
<text x="1904" y="329" font-size="12" font-weight="700" fill="#1A202C">de inventario</text>
</g>

        <g filter="url(#stickyShadow)">
            <rect x="2060" y="275" width="148" height="118" rx="4" fill="#8ED5FA" stroke="#6AC1F0" stroke-width="1"/>
        
<text x="2072" y="297" font-size="12" font-weight="700" fill="#1A202C">F15</text>
<text x="2072" y="313" font-size="12" font-weight="700" fill="#1A202C">Reporte de</text>
<text x="2072" y="329" font-size="12" font-weight="700" fill="#1A202C">rotación de productos</text>
</g>

        <g filter="url(#stickyShadow)">
            <rect x="2060" y="403" width="148" height="118" rx="4" fill="#8ED5FA" stroke="#6AC1F0" stroke-width="1"/>
        
<text x="2072" y="425" font-size="12" font-weight="700" fill="#1A202C">F16</text>
<text x="2072" y="441" font-size="12" font-weight="700" fill="#1A202C">Reporte de niveles</text>
<text x="2072" y="457" font-size="12" font-weight="700" fill="#1A202C">de inventario</text>
</g>

        <g filter="url(#stickyShadow)">
            <rect x="2228" y="275" width="148" height="118" rx="4" fill="#8ED5FA" stroke="#6AC1F0" stroke-width="1"/>
        
<text x="2240" y="297" font-size="12" font-weight="700" fill="#1A202C">F17</text>
<text x="2240" y="313" font-size="12" font-weight="700" fill="#1A202C">Autenticación</text>
<text x="2240" y="329" font-size="12" font-weight="700" fill="#1A202C">y seguridad</text>
</g>

        <g filter="url(#stickyShadow)">
            <rect x="220" y="567" width="148" height="118" rx="4" fill="#FFF176" stroke="#FBC02D" stroke-width="1"/>
        
<text x="232" y="589" font-size="12" font-weight="700" fill="#1A202C">HU-01</text>
<text x="232" y="605" font-size="12" font-weight="700" fill="#1A202C">Crear cuenta y</text>
<text x="232" y="621" font-size="12" font-weight="700" fill="#1A202C">asignar rol</text>
<text x="232" y="653" font-size="10.5" font-weight="500" fill="#4B5563">Sprint 1 - Must</text>
<text x="232" y="667" font-size="10.5" font-weight="500" fill="#4B5563">Admin</text>
</g>

        <g filter="url(#stickyShadow)">
            <rect x="220" y="695" width="148" height="118" rx="4" fill="#FFF176" stroke="#FBC02D" stroke-width="1"/>
        
<text x="232" y="717" font-size="12" font-weight="700" fill="#1A202C">HU-02</text>
<text x="232" y="733" font-size="12" font-weight="700" fill="#1A202C">Asignar tienda/CD</text>
<text x="232" y="749" font-size="12" font-weight="700" fill="#1A202C">a usuario</text>
<text x="232" y="781" font-size="10.5" font-weight="500" fill="#4B5563">Sprint 1 - Must</text>
<text x="232" y="795" font-size="10.5" font-weight="500" fill="#4B5563">Admin</text>
</g>

        <g filter="url(#stickyShadow)">
            <rect x="388" y="567" width="148" height="118" rx="4" fill="#FFF176" stroke="#FBC02D" stroke-width="1"/>
        
<text x="400" y="589" font-size="12" font-weight="700" fill="#1A202C">HU-04</text>
<text x="400" y="605" font-size="12" font-weight="700" fill="#1A202C">Crear producto</text>
<text x="400" y="653" font-size="10.5" font-weight="500" fill="#4B5563">Sprint 1 - Must</text>
<text x="400" y="667" font-size="10.5" font-weight="500" fill="#4B5563">Admin</text>
</g>

        <g filter="url(#stickyShadow)">
            <rect x="556" y="567" width="148" height="118" rx="4" fill="#FFF176" stroke="#FBC02D" stroke-width="1"/>
        
<text x="568" y="589" font-size="12" font-weight="700" fill="#1A202C">HU-07</text>
<text x="568" y="605" font-size="12" font-weight="700" fill="#1A202C">Crear tienda</text>
<text x="568" y="653" font-size="10.5" font-weight="500" fill="#4B5563">Sprint 1 - Must</text>
<text x="568" y="667" font-size="10.5" font-weight="500" fill="#4B5563">Admin</text>
</g>

        <g filter="url(#stickyShadow)">
            <rect x="724" y="567" width="148" height="118" rx="4" fill="#FFF176" stroke="#FBC02D" stroke-width="1"/>
        
<text x="736" y="589" font-size="12" font-weight="700" fill="#1A202C">HU-09</text>
<text x="736" y="605" font-size="12" font-weight="700" fill="#1A202C">Crear centro de</text>
<text x="736" y="621" font-size="12" font-weight="700" fill="#1A202C">distribución</text>
<text x="736" y="653" font-size="10.5" font-weight="500" fill="#4B5563">Sprint 1 - Must</text>
<text x="736" y="667" font-size="10.5" font-weight="500" fill="#4B5563">Admin</text>
</g>

        <g filter="url(#stickyShadow)">
            <rect x="892" y="567" width="148" height="118" rx="4" fill="#FFF176" stroke="#FBC02D" stroke-width="1"/>
        
<text x="904" y="589" font-size="12" font-weight="700" fill="#1A202C">HU-11</text>
<text x="904" y="605" font-size="12" font-weight="700" fill="#1A202C">Registrar venta</text>
<text x="904" y="653" font-size="10.5" font-weight="500" fill="#4B5563">Sprint 1 - Must</text>
<text x="904" y="667" font-size="10.5" font-weight="500" fill="#4B5563">Encargado tienda</text>
</g>

        <g filter="url(#stickyShadow)">
            <rect x="1060" y="567" width="148" height="118" rx="4" fill="#FFF176" stroke="#FBC02D" stroke-width="1"/>
        
<text x="1072" y="589" font-size="12" font-weight="700" fill="#1A202C">HU-12</text>
<text x="1072" y="605" font-size="12" font-weight="700" fill="#1A202C">Consultar inventario</text>
<text x="1072" y="621" font-size="12" font-weight="700" fill="#1A202C">de mi tienda</text>
<text x="1072" y="653" font-size="10.5" font-weight="500" fill="#4B5563">Sprint 1 - Must</text>
<text x="1072" y="667" font-size="10.5" font-weight="500" fill="#4B5563">Encargado tienda</text>
</g>

        <g filter="url(#stickyShadow)">
            <rect x="1228" y="567" width="148" height="118" rx="4" fill="#FFF176" stroke="#FBC02D" stroke-width="1"/>
        
<text x="1240" y="589" font-size="12" font-weight="700" fill="#1A202C">HU-16</text>
<text x="1240" y="605" font-size="12" font-weight="700" fill="#1A202C">Consultar inventario</text>
<text x="1240" y="621" font-size="12" font-weight="700" fill="#1A202C">de mi CD</text>
<text x="1240" y="653" font-size="10.5" font-weight="500" fill="#4B5563">Sprint 1 - Must</text>
<text x="1240" y="667" font-size="10.5" font-weight="500" fill="#4B5563">Encargado CD</text>
</g>

        <g filter="url(#stickyShadow)">
            <rect x="1228" y="695" width="148" height="118" rx="4" fill="#FFF176" stroke="#FBC02D" stroke-width="1"/>
        
<text x="1240" y="717" font-size="12" font-weight="700" fill="#1A202C">HU-18</text>
<text x="1240" y="733" font-size="12" font-weight="700" fill="#1A202C">Registrar ingreso</text>
<text x="1240" y="749" font-size="12" font-weight="700" fill="#1A202C">mercancía al CD</text>
<text x="1240" y="781" font-size="10.5" font-weight="500" fill="#4B5563">Sprint 1 - Must</text>
<text x="1240" y="795" font-size="10.5" font-weight="500" fill="#4B5563">Encargado CD</text>
</g>

        <g filter="url(#stickyShadow)">
            <rect x="2228" y="567" width="148" height="118" rx="4" fill="#FFF176" stroke="#FBC02D" stroke-width="1"/>
        
<text x="2240" y="589" font-size="12" font-weight="700" fill="#1A202C">HU-29</text>
<text x="2240" y="605" font-size="12" font-weight="700" fill="#1A202C">Iniciar sesión</text>
<text x="2240" y="621" font-size="12" font-weight="700" fill="#1A202C">según rol</text>
<text x="2240" y="653" font-size="10.5" font-weight="500" fill="#4B5563">Sprint 1 - Must</text>
<text x="2240" y="667" font-size="10.5" font-weight="500" fill="#4B5563">Todos los roles</text>
</g>

        <g filter="url(#stickyShadow)">
            <rect x="220" y="859" width="148" height="118" rx="4" fill="#FFF176" stroke="#FBC02D" stroke-width="1"/>
        
<text x="232" y="881" font-size="12" font-weight="700" fill="#1A202C">HU-03</text>
<text x="232" y="897" font-size="12" font-weight="700" fill="#1A202C">Desactivar cuenta</text>
<text x="232" y="945" font-size="10.5" font-weight="500" fill="#4B5563">Sprint 2 - Should</text>
<text x="232" y="959" font-size="10.5" font-weight="500" fill="#4B5563">Admin</text>
</g>

        <g filter="url(#stickyShadow)">
            <rect x="388" y="859" width="148" height="118" rx="4" fill="#FFF176" stroke="#FBC02D" stroke-width="1"/>
        
<text x="400" y="881" font-size="12" font-weight="700" fill="#1A202C">HU-05</text>
<text x="400" y="897" font-size="12" font-weight="700" fill="#1A202C">Editar producto</text>
<text x="400" y="945" font-size="10.5" font-weight="500" fill="#4B5563">Sprint 2 - Should</text>
<text x="400" y="959" font-size="10.5" font-weight="500" fill="#4B5563">Admin</text>
</g>

        <g filter="url(#stickyShadow)">
            <rect x="388" y="987" width="148" height="118" rx="4" fill="#FFF176" stroke="#FBC02D" stroke-width="1"/>
        
<text x="400" y="1009" font-size="12" font-weight="700" fill="#1A202C">HU-06</text>
<text x="400" y="1025" font-size="12" font-weight="700" fill="#1A202C">Desactivar/reactivar</text>
<text x="400" y="1041" font-size="12" font-weight="700" fill="#1A202C">producto</text>
<text x="400" y="1073" font-size="10.5" font-weight="500" fill="#4B5563">Sprint 2 - Should</text>
<text x="400" y="1087" font-size="10.5" font-weight="500" fill="#4B5563">Admin</text>
</g>

        <g filter="url(#stickyShadow)">
            <rect x="556" y="859" width="148" height="118" rx="4" fill="#FFF176" stroke="#FBC02D" stroke-width="1"/>
        
<text x="568" y="881" font-size="12" font-weight="700" fill="#1A202C">HU-08</text>
<text x="568" y="897" font-size="12" font-weight="700" fill="#1A202C">Desactivar tienda</text>
<text x="568" y="945" font-size="10.5" font-weight="500" fill="#4B5563">Sprint 2 - Should</text>
<text x="568" y="959" font-size="10.5" font-weight="500" fill="#4B5563">Admin</text>
</g>

        <g filter="url(#stickyShadow)">
            <rect x="724" y="859" width="148" height="118" rx="4" fill="#FFF176" stroke="#FBC02D" stroke-width="1"/>
        
<text x="736" y="881" font-size="12" font-weight="700" fill="#1A202C">HU-10</text>
<text x="736" y="897" font-size="12" font-weight="700" fill="#1A202C">Desactivar CD</text>
<text x="736" y="945" font-size="10.5" font-weight="500" fill="#4B5563">Sprint 2 - Should</text>
<text x="736" y="959" font-size="10.5" font-weight="500" fill="#4B5563">Admin</text>
</g>

        <g filter="url(#stickyShadow)">
            <rect x="1060" y="859" width="148" height="118" rx="4" fill="#FFF176" stroke="#FBC02D" stroke-width="1"/>
        
<text x="1072" y="881" font-size="12" font-weight="700" fill="#1A202C">HU-13</text>
<text x="1072" y="897" font-size="12" font-weight="700" fill="#1A202C">Ajustar inventario de</text>
<text x="1072" y="913" font-size="12" font-weight="700" fill="#1A202C">mi tienda</text>
<text x="1072" y="945" font-size="10.5" font-weight="500" fill="#4B5563">Sprint 2 - Should</text>
<text x="1072" y="959" font-size="10.5" font-weight="500" fill="#4B5563">Encargado tienda</text>
</g>

        <g filter="url(#stickyShadow)">
            <rect x="1060" y="987" width="148" height="118" rx="4" fill="#FFF176" stroke="#FBC02D" stroke-width="1"/>
        
<text x="1072" y="1009" font-size="12" font-weight="700" fill="#1A202C">HU-15</text>
<text x="1072" y="1025" font-size="12" font-weight="700" fill="#1A202C">Solicitar reposición</text>
<text x="1072" y="1041" font-size="12" font-weight="700" fill="#1A202C">manual</text>
<text x="1072" y="1073" font-size="10.5" font-weight="500" fill="#4B5563">Sprint 2 - Should</text>
<text x="1072" y="1087" font-size="10.5" font-weight="500" fill="#4B5563">Encargado tienda</text>
</g>

        <g filter="url(#stickyShadow)">
            <rect x="1228" y="859" width="148" height="118" rx="4" fill="#FFF176" stroke="#FBC02D" stroke-width="1"/>
        
<text x="1240" y="881" font-size="12" font-weight="700" fill="#1A202C">HU-17</text>
<text x="1240" y="897" font-size="12" font-weight="700" fill="#1A202C">Ajustar inventario de</text>
<text x="1240" y="913" font-size="12" font-weight="700" fill="#1A202C">mi CD</text>
<text x="1240" y="945" font-size="10.5" font-weight="500" fill="#4B5563">Sprint 2 - Should</text>
<text x="1240" y="959" font-size="10.5" font-weight="500" fill="#4B5563">Encargado CD</text>
</g>

        <g filter="url(#stickyShadow)">
            <rect x="1564" y="859" width="148" height="118" rx="4" fill="#FFF176" stroke="#FBC02D" stroke-width="1"/>
        
<text x="1576" y="881" font-size="12" font-weight="700" fill="#1A202C">HU-20</text>
<text x="1576" y="897" font-size="12" font-weight="700" fill="#1A202C">Crear recomendación</text>
<text x="1576" y="913" font-size="12" font-weight="700" fill="#1A202C">de reposición</text>
<text x="1576" y="945" font-size="10.5" font-weight="500" fill="#4B5563">Sprint 2 - Should</text>
<text x="1576" y="959" font-size="10.5" font-weight="500" fill="#4B5563">Analista/Planificador</text>
</g>

        <g filter="url(#stickyShadow)">
            <rect x="1724" y="859" width="148" height="118" rx="4" fill="#FFF176" stroke="#FBC02D" stroke-width="1"/>
        
<text x="1736" y="881" font-size="12" font-weight="700" fill="#1A202C">HU-21</text>
<text x="1736" y="897" font-size="12" font-weight="700" fill="#1A202C">Aprobar/ajustar/</text>
<text x="1736" y="913" font-size="12" font-weight="700" fill="#1A202C">rechazar recomendación</text>
<text x="1736" y="945" font-size="10.5" font-weight="500" fill="#4B5563">Sprint 2 - Should</text>
<text x="1736" y="959" font-size="10.5" font-weight="500" fill="#4B5563">Planificador</text>
</g>

        <g filter="url(#stickyShadow)">
            <rect x="1060" y="1151" width="148" height="118" rx="4" fill="#FFF176" stroke="#FBC02D" stroke-width="1"/>
        
<text x="1072" y="1173" font-size="12" font-weight="700" fill="#1A202C">HU-14</text>
<text x="1072" y="1189" font-size="12" font-weight="700" fill="#1A202C">Confirmar recepción</text>
<text x="1072" y="1205" font-size="12" font-weight="700" fill="#1A202C">de mercancía</text>
<text x="1072" y="1237" font-size="10.5" font-weight="500" fill="#4B5563">Sprint 3 - Could</text>
<text x="1072" y="1251" font-size="10.5" font-weight="500" fill="#4B5563">Encargado tienda</text>
</g>

        <g filter="url(#stickyShadow)">
            <rect x="1396" y="1151" width="148" height="118" rx="4" fill="#FFF176" stroke="#FBC02D" stroke-width="1"/>
        
<text x="1408" y="1173" font-size="12" font-weight="700" fill="#1A202C">HU-19</text>
<text x="1408" y="1189" font-size="12" font-weight="700" fill="#1A202C">Consultar patrones</text>
<text x="1408" y="1205" font-size="12" font-weight="700" fill="#1A202C">de demanda</text>
<text x="1408" y="1237" font-size="10.5" font-weight="500" fill="#4B5563">Sprint 3 - Could</text>
<text x="1408" y="1251" font-size="10.5" font-weight="500" fill="#4B5563">Analista</text>
</g>

        <g filter="url(#stickyShadow)">
            <rect x="1564" y="1151" width="148" height="118" rx="4" fill="#FFF176" stroke="#FBC02D" stroke-width="1"/>
        
<text x="1576" y="1173" font-size="12" font-weight="700" fill="#1A202C">HU-22</text>
<text x="1576" y="1189" font-size="12" font-weight="700" fill="#1A202C">Preparar/despachar</text>
<text x="1576" y="1205" font-size="12" font-weight="700" fill="#1A202C">orden</text>
<text x="1576" y="1237" font-size="10.5" font-weight="500" fill="#4B5563">Sprint 3 - Could</text>
<text x="1576" y="1251" font-size="10.5" font-weight="500" fill="#4B5563">Encargado CD</text>
</g>

        <g filter="url(#stickyShadow)">
            <rect x="1564" y="1279" width="148" height="118" rx="4" fill="#FFF176" stroke="#FBC02D" stroke-width="1"/>
        
<text x="1576" y="1301" font-size="12" font-weight="700" fill="#1A202C">HU-24</text>
<text x="1576" y="1317" font-size="12" font-weight="700" fill="#1A202C">Estado de mis</text>
<text x="1576" y="1333" font-size="12" font-weight="700" fill="#1A202C">órdenes</text>
<text x="1576" y="1365" font-size="10.5" font-weight="500" fill="#4B5563">Sprint 3 - Could</text>
<text x="1576" y="1379" font-size="10.5" font-weight="500" fill="#4B5563">Encargado tienda</text>
</g>

        <g filter="url(#stickyShadow)">
            <rect x="1724" y="1151" width="148" height="118" rx="4" fill="#FFF176" stroke="#FBC02D" stroke-width="1"/>
        
<text x="1736" y="1173" font-size="12" font-weight="700" fill="#1A202C">HU-23</text>
<text x="1736" y="1189" font-size="12" font-weight="700" fill="#1A202C">Actualizar estado</text>
<text x="1736" y="1205" font-size="12" font-weight="700" fill="#1A202C">de envío</text>
<text x="1736" y="1237" font-size="10.5" font-weight="500" fill="#4B5563">Sprint 3 - Could</text>
<text x="1736" y="1251" font-size="10.5" font-weight="500" fill="#4B5563">Encargado CD</text>
</g>

        <g filter="url(#stickyShadow)">
            <rect x="1724" y="1279" width="148" height="118" rx="4" fill="#FFF176" stroke="#FBC02D" stroke-width="1"/>
        
<text x="1736" y="1301" font-size="12" font-weight="700" fill="#1A202C">HU-25</text>
<text x="1736" y="1317" font-size="12" font-weight="700" fill="#1A202C">Seguimiento global</text>
<text x="1736" y="1333" font-size="12" font-weight="700" fill="#1A202C">de órdenes</text>
<text x="1736" y="1365" font-size="10.5" font-weight="500" fill="#4B5563">Sprint 3 - Could</text>
<text x="1736" y="1379" font-size="10.5" font-weight="500" fill="#4B5563">Planificador</text>
</g>

        <g filter="url(#stickyShadow)">
            <rect x="1892" y="1151" width="148" height="118" rx="4" fill="#FFF176" stroke="#FBC02D" stroke-width="1"/>
        
<text x="1904" y="1173" font-size="12" font-weight="700" fill="#1A202C">HU-26</text>
<text x="1904" y="1189" font-size="12" font-weight="700" fill="#1A202C">Inventario consolidado</text>
<text x="1904" y="1205" font-size="12" font-weight="700" fill="#1A202C">multi-ubicación</text>
<text x="1904" y="1237" font-size="10.5" font-weight="500" fill="#4B5563">Sprint 3 - Could</text>
<text x="1904" y="1251" font-size="10.5" font-weight="500" fill="#4B5563">Analista</text>
</g>

        <g filter="url(#stickyShadow)">
            <rect x="2060" y="1151" width="148" height="118" rx="4" fill="#FFF176" stroke="#FBC02D" stroke-width="1"/>
        
<text x="2072" y="1173" font-size="12" font-weight="700" fill="#1A202C">HU-27</text>
<text x="2072" y="1189" font-size="12" font-weight="700" fill="#1A202C">Rotación de productos</text>
<text x="2072" y="1205" font-size="12" font-weight="700" fill="#1A202C">por tienda</text>
<text x="2072" y="1237" font-size="10.5" font-weight="500" fill="#4B5563">Sprint 3 - Could</text>
<text x="2072" y="1251" font-size="10.5" font-weight="500" fill="#4B5563">Analista</text>
</g>

        <g filter="url(#stickyShadow)">
            <rect x="2060" y="1279" width="148" height="118" rx="4" fill="#FFF176" stroke="#FBC02D" stroke-width="1"/>
        
<text x="2072" y="1301" font-size="12" font-weight="700" fill="#1A202C">HU-28</text>
<text x="2072" y="1317" font-size="12" font-weight="700" fill="#1A202C">Niveles de</text>
<text x="2072" y="1333" font-size="12" font-weight="700" fill="#1A202C">inventario general</text>
<text x="2072" y="1365" font-size="10.5" font-weight="500" fill="#4B5563">Sprint 3 - Could</text>
<text x="2072" y="1379" font-size="10.5" font-weight="500" fill="#4B5563">Analista</text>
</g>
</svg>